<?xml version="1.0" encoding="UTF-8" standalone="no"?>
<svg
   width="65"
   height="65"
   version="1.1"
   viewBox="0 0 65 65"
   id="svg87"
   sodipodi:docname="play_aulas_diversos.svg"
   inkscape:export-filename="/home/tiger/Documentos/path85.png"
   inkscape:export-xdpi="96"
   inkscape:export-ydpi="96"
   inkscape:version="1.2.2 (b0a8486541, 2022-12-01)"
   xml:space="preserve"
   xmlns:inkscape="http://www.inkscape.org/namespaces/inkscape"
   xmlns:sodipodi="http://sodipodi.sourceforge.net/DTD/sodipodi-0.dtd"
   xmlns:xlink="http://www.w3.org/1999/xlink"
   xmlns="http://www.w3.org/2000/svg"
   xmlns:svg="http://www.w3.org/2000/svg"><sodipodi:namedview
     id="namedview89"
     pagecolor="#505050"
     bordercolor="#eeeeee"
     borderopacity="1"
     inkscape:pageshadow="0"
     inkscape:pageopacity="0"
     inkscape:pagecheckerboard="0"
     showgrid="false"
     inkscape:zoom="2.2989541"
     inkscape:cx="153.98307"
     inkscape:cy="77.209025"
     inkscape:window-width="1366"
     inkscape:window-height="703"
     inkscape:window-x="0"
     inkscape:window-y="0"
     inkscape:window-maximized="1"
     inkscape:current-layer="layer8"
     showguides="false"
     inkscape:showpageshadow="2"
     inkscape:deskcolor="#505050"><inkscape:page
       x="0"
       y="-4.8094421e-07"
       width="65"
       height="65"
       id="page1"
       inkscape:export-filename="../../../../../../../home/ednei/Imagens/icon5.png"
       inkscape:export-xdpi="96"
       inkscape:export-ydpi="96"
       margin="0"
       bleed="0" /></sodipodi:namedview><defs
     id="defs73"><linearGradient
       inkscape:collect="always"
       id="linearGradient16"><stop
         style="stop-color:#43f9f4;stop-opacity:1;"
         offset="0"
         id="stop15" /><stop
         style="stop-color:#004a96;stop-opacity:1;"
         offset="1"
         id="stop16" /></linearGradient><linearGradient
       inkscape:collect="always"
       xlink:href="#linearGradient16"
       id="linearGradient15"
       gradientUnits="userSpaceOnUse"
       gradientTransform="matrix(0.09470418,0,0,0.11333349,384.09282,-26.12368)"
       x1="-827.47772"
       y1="312.46976"
       x2="-258.07211"
       y2="716.66718" /></defs><g
     inkscape:groupmode="layer"
     id="layer8"
     inkscape:label="Layer 8"
     transform="translate(-300)"><path
       id="path1"
       style="fill:url(#linearGradient15);fill-opacity:1;stroke-width:1.26334"
       d="m 305.72816,9.2903687 c -2.8934,0 -5.36016,2.7913633 -5.22266,6.2500013 l 1.44141,36.25 c 0.1375,3.45863 2.32927,6.25 5.22266,6.25 h 50.56445 c 2.89339,0 5.07601,-2.7919 5.22266,-6.25 l 1.53711,-36.25 c 0.14665,-3.458099 -2.32928,-6.2500013 -5.22266,-6.2500013 z" /><rect
       style="fill:#ff0d0d;fill-opacity:1;stroke:none;stroke-width:0.2;stroke-opacity:1"
       id="rect1"
       width="33.320862"
       height="1.4793278"
       x="315.83957"
       y="46.632408"
       ry="0.7396639" /><rect
       style="fill:#ffa695;fill-opacity:1;stroke:none;stroke-width:0.155577;stroke-opacity:1"
       id="rect2"
       width="20.162586"
       height="1.4793278"
       x="328.99783"
       y="46.632408"
       ry="0.7396639" /><path
       id="path2"
       style="fill:#646464;fill-opacity:1;stroke:none;stroke-width:0.2;stroke-opacity:1"
       d="m 327.12638,46.63217 a 1.8061136,1.8061136 0 0 0 -0.16016,0.74023 1.8061136,1.8061136 0 0 0 0.16016,0.74023 h 3.29297 a 1.8061136,1.8061136 0 0 0 0.16016,-0.74023 1.8061136,1.8061136 0 0 0 -0.16016,-0.74023 z" /><circle
       style="fill:#383838;fill-opacity:1;stroke:none;stroke-width:0.2;stroke-opacity:1"
       id="circle2"
       cx="329.06763"
       cy="47.372063"
       r="1.8061136" /><rect
       style="fill:#383838;fill-opacity:1;stroke:none;stroke-width:0.105624;stroke-opacity:1"
       id="rect3"
       width="3.447001"
       height="2.7104592"
       x="306.50815"
       y="16.980753"
       ry="1.0129454" /><rect
       style="fill:#383838;fill-opacity:1;stroke:none;stroke-width:0.105624;stroke-opacity:1"
       id="rect4"
       width="3.447001"
       height="2.7104592"
       x="306.50815"
       y="23.112495"
       ry="1.0129454" /><rect
       style="fill:#383838;fill-opacity:1;stroke:none;stroke-width:0.105624;stroke-opacity:1"
       id="rect5"
       width="3.447001"
       height="2.7104592"
       x="306.50815"
       y="29.244255"
       ry="1.0129454" /><rect
       style="fill:#383838;fill-opacity:1;stroke:none;stroke-width:0.105624;stroke-opacity:1"
       id="rect6"
       width="3.447001"
       height="2.7104592"
       x="306.50815"
       y="35.376015"
       ry="1.0129454" /><rect
       style="fill:#383838;fill-opacity:1;stroke:none;stroke-width:0.105624;stroke-opacity:1"
       id="rect7"
       width="3.447001"
       height="2.7104592"
       x="306.50815"
       y="41.507782"
       ry="1.0129454" /><rect
       style="fill:#383838;fill-opacity:1;stroke:none;stroke-width:0.105624;stroke-opacity:1"
       id="rect8"
       width="3.447001"
       height="2.7104592"
       x="306.50815"
       y="47.639534"
       ry="1.0129454" /><rect
       style="fill:#383838;fill-opacity:1;stroke:none;stroke-width:0.105624;stroke-opacity:1"
       id="rect9"
       width="3.447001"
       height="2.7104592"
       x="355.04486"
       y="16.980753"
       ry="1.0129454" /><rect
       style="fill:#383838;fill-opacity:1;stroke:none;stroke-width:0.105624;stroke-opacity:1"
       id="rect10"
       width="3.447001"
       height="2.7104592"
       x="355.04486"
       y="23.112495"
       ry="1.0129454" /><rect
       style="fill:#383838;fill-opacity:1;stroke:none;stroke-width:0.105624;stroke-opacity:1"
       id="rect11"
       width="3.447001"
       height="2.7104592"
       x="355.04486"
       y="29.244255"
       ry="1.0129454" /><rect
       style="fill:#383838;fill-opacity:1;stroke:none;stroke-width:0.105624;stroke-opacity:1"
       id="rect12"
       width="3.447001"
       height="2.7104592"
       x="355.04486"
       y="35.376015"
       ry="1.0129454" /><rect
       style="fill:#383838;fill-opacity:1;stroke:none;stroke-width:0.105624;stroke-opacity:1"
       id="rect13"
       width="3.447001"
       height="2.7104592"
       x="355.04486"
       y="41.507782"
       ry="1.0129454" /><rect
       style="fill:#383838;fill-opacity:1;stroke:none;stroke-width:0.105624;stroke-opacity:1"
       id="rect14"
       width="3.447001"
       height="2.7104592"
       x="355.04486"
       y="47.639534"
       ry="1.0129454" /><g
       id="g15"
       transform="translate(58.172246,-10.191335)"><path
         id="path14"
         style="fill:#ff0d0d;fill-opacity:1;stroke-width:26.9217"
         d="M 264.81947,44.345783 V 28.062004 a 3.4679073,3.4679073 0 0 1 5.20185,-3.003297 l 14.10217,8.141891 a 3.4679071,3.4679071 0 0 1 0,6.006591 l -14.10217,8.141891 a 3.4679075,3.4679075 0 0 1 -5.20185,-3.003297 z"
         sodipodi:nodetypes="cccc"
         inkscape:transform-center-x="-3.0186562" /><path
         id="path15"
         style="opacity:0.5;fill:none;fill-opacity:1;stroke:#562f00;stroke-width:0.900053;stroke-dasharray:none;stroke-opacity:1"
         d="M 267.54449,45.150394 V 30.494127 A 3.1213009,3.1213009 0 0 1 272.22644,27.791 l 12.6927,7.328135 a 3.1213007,3.1213007 0 0 1 0,5.406251 l -12.6927,7.328134 a 3.121301,3.121301 0 0 1 -4.68195,-2.703126 z"
         sodipodi:nodetypes="cccc"
         inkscape:transform-center-x="-2.7169511" /></g><text
       xml:space="preserve"
       style="font-style:normal;font-variant:normal;font-weight:900;font-stretch:normal;font-size:12.7766px;font-family:Roboto;-inkscape-font-specification:'Roboto Heavy';fill:#383838;fill-opacity:1;stroke:none;stroke-width:1.06472"
       x="337.68155"
       y="43.925587"
       id="text15"
       transform="rotate(0.27167258)"><tspan
         sodipodi:role="line"
         id="tspan15"
         x="337.68155"
         y="43.925587"
         style="fill:#383838;fill-opacity:1;stroke-width:1.06472">5°</tspan></text></g></svg>
