<?xml version="1.0" encoding="UTF-8" standalone="no"?>
<svg
   enable-background="new 0 0 128 128"
   viewBox="0 0 64 64"
   version="1.1"
   id="svg29"
   sodipodi:docname="ai 64.svg"
   width="64"
   height="64"
   inkscape:version="1.4 (e7c3feb100, 2024-10-09)"
   xmlns:inkscape="http://www.inkscape.org/namespaces/inkscape"
   xmlns:sodipodi="http://sodipodi.sourceforge.net/DTD/sodipodi-0.dtd"
   xmlns:xlink="http://www.w3.org/1999/xlink"
   xmlns="http://www.w3.org/2000/svg"
   xmlns:svg="http://www.w3.org/2000/svg">
  <defs
     id="defs29" />
  <sodipodi:namedview
     id="namedview29"
     pagecolor="#ffffff"
     bordercolor="#000000"
     borderopacity="0.25"
     inkscape:showpageshadow="2"
     inkscape:pageopacity="0.0"
     inkscape:pagecheckerboard="0"
     inkscape:deskcolor="#d1d1d1"
     inkscape:zoom="7.625"
     inkscape:cx="31.934426"
     inkscape:cy="32"
     inkscape:window-width="1366"
     inkscape:window-height="696"
     inkscape:window-x="0"
     inkscape:window-y="0"
     inkscape:window-maximized="1"
     inkscape:current-layer="svg29" />
  <linearGradient
     id="lg1">
    <stop
       offset="0"
       stop-color="#fef156"
       id="stop1" />
    <stop
       offset=".4469"
       stop-color="#ffc242"
       id="stop2" />
    <stop
       offset="1"
       stop-color="#fc753f"
       id="stop3" />
  </linearGradient>
  <linearGradient
     id="SVGID_1_"
     gradientUnits="userSpaceOnUse"
     x1="82.887001"
     x2="82.887001"
     xlink:href="#lg1"
     y1="2"
     y2="126" />
  <linearGradient
     id="SVGID_00000156574324914655442650000005058820272471681697_"
     gradientUnits="userSpaceOnUse"
     x1="138.778"
     x2="77.387001"
     y1="138.783"
     y2="77.391998">
    <stop
       offset=".6875"
       stop-color="#f99e0d"
       stop-opacity="0"
       id="stop4" />
    <stop
       offset=".7327"
       stop-color="#f49020"
       stop-opacity=".078"
       id="stop5" />
    <stop
       offset=".8234"
       stop-color="#e86d50"
       stop-opacity=".233"
       id="stop6" />
    <stop
       offset=".8622"
       stop-color="#e25d66"
       stop-opacity=".3"
       id="stop7" />
  </linearGradient>
  <linearGradient
     id="lg2">
    <stop
       offset="0"
       stop-color="#a4eeff"
       id="stop8" />
    <stop
       offset=".7319"
       stop-color="#02c0fc"
       id="stop9" />
    <stop
       offset="1"
       stop-color="#27a6ff"
       id="stop10" />
  </linearGradient>
  <linearGradient
     id="SVGID_00000010310794303841084400000007624894005285671334_"
     gradientUnits="userSpaceOnUse"
     x1="34"
     x2="34"
     xlink:href="#lg2"
     y1="2"
     y2="126" />
  <linearGradient
     id="SVGID_00000123406716774618815580000002177802853444961933_"
     gradientUnits="userSpaceOnUse"
     x1="95.614998"
     x2="49.171001"
     y1="120.33"
     y2="73.886002">
    <stop
       offset=".2613"
       stop-color="#a4eeff"
       stop-opacity="0"
       id="stop11" />
    <stop
       offset=".2961"
       stop-color="#66caff"
       stop-opacity=".508"
       id="stop12" />
    <stop
       offset=".3297"
       stop-color="#27a6ff"
       id="stop13" />
  </linearGradient>
  <linearGradient
     id="SVGID_00000034062460427248075960000002013346997483027584_"
     gradientUnits="userSpaceOnUse"
     x1="82.142998"
     x2="82.142998"
     xlink:href="#lg1"
     y1="6.4200001"
     y2="20.700001" />
  <linearGradient
     id="SVGID_00000090975154723626865140000002206397274167004859_"
     gradientUnits="userSpaceOnUse"
     x1="45.858002"
     x2="45.858002"
     xlink:href="#lg2"
     y1="6.4200001"
     y2="20.700001" />
  <linearGradient
     id="SVGID_00000145023084853558025850000008541710912099123129_"
     gradientUnits="userSpaceOnUse"
     x1="32.743"
     x2="95.258003"
     y1="64.000999"
     y2="64.000999">
    <stop
       offset=".00000011188"
       stop-color="#a47af4"
       id="stop14" />
    <stop
       offset=".4469"
       stop-color="#8954dd"
       id="stop15" />
    <stop
       offset="1"
       stop-color="#6936ba"
       id="stop16" />
  </linearGradient>
  <g
     id="Layer_22"
     display="none" />
  <g
     id="g30"
     transform="scale(0.5)">
    <g
       id="Layer_1" />
    <g
       id="Generate_Text" />
    <g
       id="Generate_Image" />
    <g
       id="View" />
    <g
       id="Robot_Arm" />
    <g
       id="Chat_Bot" />
    <g
       id="Generate_Video" />
    <g
       id="Network" />
    <g
       id="Protection" />
    <g
       id="Smartwatch" />
    <g
       id="Smarthome" />
    <g
       id="Smart_car" />
    <g
       id="VR" />
    <g
       id="Eye" />
    <g
       id="Smart_Eyeglass" />
    <g
       id="Brain" />
    <g
       id="Robot" />
    <g
       id="Holographic" />
    <g
       id="Ai" />
    <g
       id="Chip" />
    <g
       id="Brain_AI">
      <g
         id="g29">
        <path
           d="m 124,73 c 0,0.45 -0.01,0.9 -0.05,1.34 -0.57,8.71 -6.75,16.01 -15.12,18.07 -0.58,4.05 -2.6,7.69 -5.57,10.31 -1.53,1.36 -3.3,2.45 -5.26,3.19 V 106 c 0,6.04 -4.48,11.05 -10.29,11.88 -0.97,2.09 -2.42,3.87 -4.21,5.24 -2.05,1.56 -4.53,2.57 -7.18,2.81 C 75.89,125.98 75.45,126 75,126 70.54,126 66.57,123.89 64,120.63 57.56,113.37 52.78,106.11 49.35,98.96 46.88,93.86 45.11,88.82 43.9,83.88 33.61,41.94 64,7.37 64,7.37 66.57,4.11 70.54,2 75,2 c 4.05,0 7.69,1.69 10.23,4.42 1.38,1.46 2.43,3.21 3.07,5.16 C 89.82,11.2 91.39,11 93,11 c 10.48,0 19,8.52 19,19 0,0.79 -0.05,1.58 -0.14,2.35 6.68,2.72 11.14,9.21 11.14,16.65 0,4.02 -1.35,7.9 -3.78,11.03 3.07,3.59 4.78,8.18 4.78,12.97 z"
           fill="url(#SVGID_1_)"
           id="path16"
           style="fill:url(#SVGID_1_)" />
        <path
           d="m 123.95,74.34 c -0.57,8.71 -6.75,16.01 -15.12,18.07 -0.58,4.05 -2.6,7.69 -5.57,10.31 -1.53,1.36 -3.3,2.45 -5.26,3.19 V 106 c 0,6.04 -4.48,11.05 -10.29,11.88 -0.97,2.09 -2.42,3.87 -4.21,5.24 -2.05,1.56 -4.53,2.57 -7.18,2.81 L 49.35,98.96 39.08,88.7 43.9,83.88 88.72,39.11 Z"
           fill="url(#SVGID_00000156574324914655442650000005058820272471681697_)"
           id="path17"
           style="fill:url(#SVGID_00000156574324914655442650000005058820272471681697_)" />
        <path
           d="m 64,7.37 v 113.26 c -0.26,0.33 -0.53,0.64 -0.82,0.94 -0.14,0.16 -0.29,0.3 -0.44,0.45 -0.14,0.14 -0.3,0.28 -0.45,0.42 -0.16,0.14 -0.32,0.27 -0.48,0.4 -0.47,0.39 -0.98,0.74 -1.5,1.06 -0.01,0.01 -0.02,0.01 -0.03,0.02 C 58.15,125.24 55.66,126 53,126 47.5,126 42.55,122.75 40.29,117.88 34.48,117.05 30,112.04 30,106 v -0.09 C 24.23,103.73 20.05,98.54 19.17,92.41 10.37,90.24 4,82.29 4,73 4,68.21 5.71,63.62 8.78,60.03 6.35,56.9 5,53.02 5,49 5,41.56 9.46,35.07 16.14,32.35 16.05,31.58 16,30.79 16,30 16,20.44 23.08,12.52 32.28,11.2 33.17,11.07 34.08,11 35,11 c 1.61,0 3.18,0.2 4.7,0.58 C 41.54,5.98 46.79,2 53,2 c 4.46,0 8.43,2.11 11,5.37 z"
           fill="url(#SVGID_00000010310794303841084400000007624894005285671334_)"
           id="path18"
           style="fill:url(#SVGID_00000010310794303841084400000007624894005285671334_)" />
        <path
           d="m 64,63.81 v 49.8 L 39.08,88.7 Z"
           fill="url(#SVGID_00000123406716774618815580000002177802853444961933_)"
           id="path19"
           style="fill:url(#SVGID_00000123406716774618815580000002177802853444961933_)" />
        <path
           d="m 88.3,11.58 c -3.02,1.47 -5.33,4.02 -6.5,7.16 -0.45,1.21 -1.6,1.96 -2.82,1.96 -0.34,0 -0.7,-0.06 -1.04,-0.19 -1.55,-0.58 -2.34,-2.31 -1.77,-3.86 1.65,-4.45 4.87,-8.06 9.06,-10.23 1.38,1.46 2.43,3.21 3.07,5.16 z"
           fill="url(#SVGID_00000034062460427248075960000002013346997483027584_)"
           id="path20"
           style="fill:url(#SVGID_00000034062460427248075960000002013346997483027584_)" />
        <path
           d="m 103.26,102.72 c -1.53,1.36 -3.3,2.45 -5.26,3.19 -0.22,-0.98 -0.7,-1.9 -1.38,-2.66 -1.1,-1.24 -1,-3.13 0.24,-4.24 1.23,-1.1 3.13,-1 4.23,0.23 0.92,1.03 1.66,2.21 2.17,3.48 z"
           fill="#fcaa1a"
           id="path21" />
        <path
           d="m 87.71,117.88 c -0.97,2.09 -2.42,3.87 -4.21,5.24 -0.86,-0.32 -1.68,-0.74 -2.46,-1.26 -1.38,-0.92 -1.74,-2.79 -0.82,-4.17 0.92,-1.37 2.78,-1.74 4.16,-0.82 0.98,0.66 2.14,1.01 3.33,1.01 z"
           fill="#fcaa1a"
           id="path22" />
        <path
           d="m 39.7,11.58 c 3.02,1.47 5.33,4.02 6.5,7.16 0.45,1.21 1.6,1.96 2.82,1.96 0.34,0 0.7,-0.06 1.04,-0.19 1.55,-0.58 2.34,-2.31 1.77,-3.86 C 50.18,12.2 46.96,8.59 42.77,6.42 41.39,7.88 40.34,9.63 39.7,11.58 Z"
           fill="url(#SVGID_00000090975154723626865140000002206397274167004859_)"
           id="path23"
           style="fill:url(#SVGID_00000090975154723626865140000002206397274167004859_)" />
        <path
           d="m 24.74,102.72 c 1.53,1.36 3.3,2.45 5.26,3.19 0.22,-0.98 0.7,-1.9 1.38,-2.66 1.1,-1.24 1,-3.13 -0.24,-4.24 -1.23,-1.1 -3.13,-1 -4.23,0.23 -0.92,1.03 -1.66,2.21 -2.17,3.48 z"
           fill="#10a0f9"
           id="path24" />
        <path
           d="m 40.29,117.88 c 0.97,2.09 2.42,3.87 4.21,5.24 0.86,-0.32 1.68,-0.74 2.46,-1.26 1.38,-0.92 1.74,-2.79 0.82,-4.17 -0.92,-1.37 -2.78,-1.74 -4.16,-0.82 -0.98,0.66 -2.14,1.01 -3.33,1.01 z"
           fill="#10a0f9"
           id="path25" />
        <path
           d="m 90.69,86.03 c -0.91,2.1 -2.56,3.75 -4.66,4.66 -7,3.05 -14.52,4.57 -22.03,4.57 -7.52,0 -15.03,-1.52 -22.03,-4.57 -2.1,-0.91 -3.75,-2.56 -4.66,-4.66 -6.09,-14 -6.09,-30.06 0,-44.06 0.91,-2.1 2.56,-3.75 4.66,-4.66 14,-6.09 30.06,-6.09 44.06,0 2.1,0.91 3.75,2.56 4.66,4.66 6.09,14 6.09,30.06 0,44.06 z"
           fill="url(#SVGID_00000145023084853558025850000008541710912099123129_)"
           id="path26"
           style="fill:url(#SVGID_00000145023084853558025850000008541710912099123129_)" />
        <g
           fill="#ffffff"
           id="g28">
          <path
             d="M 59.819,51.975 C 59.388,50.789 58.262,50 57,50 c -1.262,0 -2.388,0.789 -2.819,1.975 l -8,22 c -0.566,1.557 0.237,3.278 1.794,3.845 1.554,0.565 3.278,-0.237 3.845,-1.794 L 52.556,74 h 8.888 l 0.737,2.025 c 0.443,1.219 1.594,1.976 2.819,1.976 0.34,0 0.687,-0.059 1.025,-0.182 1.557,-0.566 2.36,-2.288 1.794,-3.845 z M 54.738,68 57,61.778 59.262,68 Z"
             id="path27" />
          <path
             d="m 77,50 c -1.657,0 -3,1.343 -3,3 v 22 c 0,1.657 1.343,3 3,3 1.657,0 3,-1.343 3,-3 V 53 c 0,-1.657 -1.343,-3 -3,-3 z"
             id="path28" />
        </g>
      </g>
    </g>
  </g>
</svg>
